<svg width="26" height="26" viewBox="0 0 26 26" fill="none" xmlns="http://www.w3.org/2000/svg">
<path d="M22.75 12.0358V5.41665C22.75 4.84201 22.5217 4.29091 22.1154 3.88458C21.7091 3.47825 21.158 3.24998 20.5833 3.24998H16.055C15.6 1.99331 14.4083 1.08331 13 1.08331C11.5917 1.08331 10.4 1.99331 9.945 3.24998H5.41667C4.225 3.24998 3.25 4.22498 3.25 5.41665V20.5833C3.25 21.1579 3.47827 21.709 3.8846 22.1154C4.29093 22.5217 4.84203 22.75 5.41667 22.75H12.0358C13.4008 24.0933 15.2642 24.9166 17.3333 24.9166C21.5258 24.9166 24.9167 21.5258 24.9167 17.3333C24.9167 15.2641 24.0933 13.4008 22.75 12.0358ZM13 3.24998C13.5958 3.24998 14.0833 3.73748 14.0833 4.33331C14.0833 4.92915 13.5958 5.41665 13 5.41665C12.4042 5.41665 11.9167 4.92915 11.9167 4.33331C11.9167 3.73748 12.4042 3.24998 13 3.24998ZM5.41667 20.5833V5.41665H7.58333V7.58331H18.4167V5.41665H20.5833V10.4866C19.5975 10.0208 18.5033 9.74998 17.3333 9.74998H7.58333V11.9166H12.025C11.375 12.5341 10.8767 13.2708 10.4867 14.0833H7.58333V16.25H9.83667C9.7825 16.6075 9.75 16.965 9.75 17.3333C9.75 18.5033 10.0208 19.5975 10.4867 20.5833H5.41667ZM17.3333 22.75C14.3433 22.75 11.9167 20.3233 11.9167 17.3333C11.9167 14.3433 14.3433 11.9166 17.3333 11.9166C20.3233 11.9166 22.75 14.3433 22.75 17.3333C22.75 20.3233 20.3233 22.75 17.3333 22.75ZM17.875 17.6041L20.9733 19.435L20.1608 20.7566L16.25 18.4166V13H17.875V17.6041Z" fill="#6AAD9F"/>
</svg>
